<svg width="100" height="56" viewBox="0 0 100 56" fill="none" xmlns="http://www.w3.org/2000/svg">
<path d="M98.4996 9.79092C98.4804 8.97651 97.8146 8.32632 97 8.32632C96.969 8.32632 96.9381 8.32632 96.9073 8.32632C95.1123 8.32643 93.516 8.32653 91.5035 7.95419C89.4582 7.57579 86.9278 6.80012 83.369 5.17546L83.2886 5.13669L83.2886 5.13667L83.2371 5.11184C79.9071 3.50487 76.291 1.75985 70.9678 1.78513M98.4996 9.79092L23.4154 4.50019C18.5331 4.52115 15.2138 6.14482 11.8528 7.87366L12.1141 8.3807L12.114 8.38075M98.4996 9.79092C98.5188 10.6053 97.8845 11.2862 97.0708 11.3246L93.4171 11.4972C93.3661 11.4996 93.3151 11.4994 93.2641 11.4967C87.8491 11.1996 84.8597 9.84974 81.5504 8.25305L81.5395 8.24781C78.1508 6.61282 75.2833 5.24441 70.9888 5.26481L70.9887 5.26481C66.652 5.2852 63.8377 6.70815 60.6233 8.35927L60.6232 8.3593L60.5926 8.37503M98.4996 9.79092L60.5926 8.37503M70.9678 1.78513L70.9701 2.26486C65.8734 2.28984 62.5074 4.01883 59.272 5.6807L59.2526 5.69069L59.2525 5.69073L59.2219 5.70646L59.2218 5.7065C59.1513 5.74272 59.0808 5.77891 59.0104 5.81505M70.9678 1.78513C65.5582 1.81057 61.9859 3.64566 58.7942 5.28527L58.75 5.30798L59.0104 5.81505M70.9678 1.78513L70.9701 2.26486C70.9716 2.26485 70.9731 2.26485 70.9746 2.26484M59.0104 5.81505C58.9951 5.82294 58.9797 5.83082 58.9643 5.8387M59.0104 5.81505L58.7499 5.30799L58.7039 5.33164M58.9643 5.8387L59.3893 6.66591M58.9643 5.8387L59.3893 6.66591M58.9643 5.8387C55.8836 7.41885 52.867 8.89377 48.2725 8.93038C48.27 8.9304 48.2675 8.93042 48.2649 8.93044C43.4425 8.96725 40.0492 7.39309 36.5496 5.70165M58.9643 5.8387L58.7039 5.33164M58.9643 5.8387L58.7039 5.33166L58.7039 5.33164M59.3893 6.66591C56.1637 8.32275 53.0482 9.91095 48.2806 9.95059C48.2781 9.95061 48.2756 9.95063 48.2731 9.95065C43.2836 9.99047 39.7835 8.30791 36.1413 6.54566L36.0979 6.52467L59.6774 6.51792C59.6672 6.52317 59.657 6.52842 59.6468 6.53367C59.6467 6.53368 59.6467 6.53368 59.6467 6.53369C59.5762 6.56989 59.5057 6.60608 59.4353 6.64224L59.3893 6.66591ZM36.5496 5.70165C36.5352 5.69466 36.5207 5.68767 36.5062 5.68068C36.4408 5.64906 36.3754 5.6174 36.3099 5.58571L36.3098 5.58566L36.2645 5.56373L36.2644 5.56369L36.2438 5.55374C32.6068 3.79399 28.8107 1.95729 23.4089 1.97993L23.4087 1.97994C23.4074 1.97994 23.4062 1.97995 23.4049 1.97995C23.4049 1.97995 23.4048 1.97995 23.4048 1.97995C17.9611 2.0042 14.2551 3.90279 10.74 5.71392L10.7399 5.71397L10.6374 5.76676C10.5754 5.7987 10.5135 5.8306 10.4517 5.86245C10.4516 5.86248 10.4516 5.86251 10.4515 5.86254C10.4487 5.86397 10.4459 5.8654 10.4431 5.86684L10.1819 5.35971M36.5496 5.70165L36.7946 5.1954L36.7512 5.17442L36.6939 5.14672C33.1103 3.41268 29.1084 1.4763 23.4029 1.50022L23.4027 1.50022C17.6243 1.52498 13.7042 3.54483 10.2279 5.33599L10.1904 5.35532L10.1901 5.35546L10.1819 5.35971M36.5496 5.70165L36.7946 5.1954C40.4362 6.95737 43.655 8.48746 48.2611 8.4507C52.6506 8.41573 55.493 6.98098 58.7039 5.33164M10.1819 5.35971L10.1816 5.35986L10.443 5.86693C8.00325 7.12309 5.67702 8.28924 2.80073 8.84299C2.77481 8.84798 2.74884 8.85292 2.72283 8.85781L2.90493 9.82632L3 10.332H3.10248L3.29793 11.2964C6.44935 10.6578 9.02108 9.33266 11.4883 8.06135L11.5559 8.02654L11.5562 8.0264L11.5644 8.02215C11.5645 8.0221 11.5646 8.02205 11.5647 8.022C11.6266 7.99011 11.6885 7.95824 11.7503 7.92639M10.1819 5.35971C7.65397 6.66217 5.41557 7.80631 2.70208 8.3562C2.00272 8.49793 1.5 9.11273 1.5 9.82632V10.332C1.5 10.7783 1.69879 11.2015 2.04234 11.4865C2.38589 11.7715 2.8385 11.8886 3.27718 11.8062C6.72513 11.1579 9.46335 9.74675 11.9519 8.4643L12.0116 8.4335L11.7503 7.92639M11.7503 7.92639C11.7845 7.90882 11.8186 7.89125 11.8528 7.87369L12.114 8.38075M11.7503 7.92639L12.0117 8.43349L12.114 8.38075M12.114 8.38075C15.607 6.581 18.7538 4.99996 23.4214 4.97991L83.0443 5.64281C82.9811 5.6124 82.9177 5.58183 82.854 5.55111L82.8432 5.54586L82.7813 5.51603C79.4033 3.88611 75.9939 2.241 70.9746 2.26484M70.9746 2.26484L70.9794 3.28509L70.9749 3.28511C70.9764 3.28511 70.9779 3.2851 70.9794 3.28509L70.9746 2.26484ZM60.5926 8.37503L60.5925 8.37507L60.5501 8.39686C57.3506 10.0404 53.7562 11.8868 48.2964 11.9303C42.6278 11.9755 38.6428 10.0473 35.0622 8.31473L35.0034 8.28626L35.0033 8.28621L34.958 8.26429L34.9579 8.26425C31.3182 6.50323 28.0744 4.96044 23.4216 4.97991L60.5926 8.37503Z" fill="#1F425F" stroke="#1F425F" stroke-width="3" stroke-miterlimit="10" stroke-linejoin="round"/>
<path d="M98.4996 31.0751C98.4804 30.2607 97.8146 29.6105 97 29.6105C96.969 29.6105 96.9381 29.6105 96.9073 29.6105C95.1123 29.6106 93.516 29.6107 91.5035 29.2384C89.4582 28.86 86.9278 28.0843 83.369 26.4596L83.2886 26.4209L83.2886 26.4208L83.2371 26.396C79.9071 24.7891 76.291 23.044 70.9678 23.0693M98.4996 31.0751L23.4154 25.7844C18.5331 25.8053 15.2138 27.429 11.8528 29.1578L12.1141 29.6649L12.114 29.6649M98.4996 31.0751C98.5188 31.8895 97.8845 32.5704 97.0708 32.6088L93.4171 32.7814C93.3661 32.7838 93.3151 32.7836 93.2641 32.7808C87.8491 32.4838 84.8597 31.1339 81.5504 29.5372L81.5395 29.532C78.1508 27.897 75.2833 26.5286 70.9888 26.549L70.9887 26.549C66.652 26.5694 63.8377 27.9923 60.6233 29.6434L60.6232 29.6435L60.5926 29.6592M98.4996 31.0751L60.5926 29.6592M70.9678 23.0693L70.9701 23.549C65.8734 23.574 62.5074 25.303 59.272 26.9649L59.2526 26.9749L59.2525 26.9749L59.2219 26.9906L59.2218 26.9907C59.1513 27.0269 59.0808 27.0631 59.0104 27.0992M70.9678 23.0693C65.5582 23.0947 61.9859 24.9298 58.7942 26.5695L58.75 26.5922L59.0104 27.0992M70.9678 23.0693L70.9701 23.549C70.9716 23.549 70.9731 23.549 70.9746 23.549M59.0104 27.0992C58.9951 27.1071 58.9797 27.115 58.9643 27.1229M59.0104 27.0992L58.7499 26.5922L58.7039 26.6158M58.9643 27.1229L59.3893 27.9501M58.9643 27.1229L59.3893 27.9501M58.9643 27.1229C55.8836 28.703 52.867 30.178 48.2725 30.2146C48.27 30.2146 48.2675 30.2146 48.2649 30.2146C43.4425 30.2514 40.0492 28.6773 36.5496 26.9858M58.9643 27.1229L58.7039 26.6158M58.9643 27.1229L58.7039 26.6158L58.7039 26.6158M59.3893 27.9501C56.1637 29.6069 53.0482 31.1951 48.2806 31.2348C48.2781 31.2348 48.2756 31.2348 48.2731 31.2348C43.2836 31.2746 39.7835 29.5921 36.1413 27.8298L36.0979 27.8089L59.6774 27.8021C59.6672 27.8074 59.657 27.8126 59.6468 27.8179C59.6467 27.8179 59.6467 27.8179 59.6467 27.8179C59.5762 27.8541 59.5057 27.8903 59.4353 27.9264L59.3893 27.9501ZM36.5496 26.9858C36.5352 26.9788 36.5207 26.9719 36.5062 26.9649C36.4408 26.9332 36.3754 26.9016 36.3099 26.8699L36.3098 26.8698L36.2645 26.8479L36.2644 26.8479L36.2438 26.8379C32.6068 25.0782 28.8107 23.2415 23.4089 23.2641L23.4087 23.2641C23.4074 23.2641 23.4062 23.2641 23.4049 23.2641C23.4049 23.2641 23.4048 23.2641 23.4048 23.2641C17.9611 23.2884 14.2551 25.187 10.74 26.9981L10.7399 26.9982L10.6374 27.0509C10.5754 27.0829 10.5135 27.1148 10.4517 27.1466C10.4516 27.1467 10.4516 27.1467 10.4515 27.1467C10.4487 27.1481 10.4459 27.1496 10.4431 27.151L10.1819 26.6439M36.5496 26.9858L36.7946 26.4796L36.7512 26.4586L36.6939 26.4309C33.1103 24.6969 29.1084 22.7605 23.4029 22.7844L23.4027 22.7844C17.6243 22.8092 13.7042 24.829 10.2279 26.6202L10.1904 26.6395L10.1901 26.6396L10.1819 26.6439M36.5496 26.9858L36.7946 26.4796C40.4362 28.2415 43.655 29.7716 48.2611 29.7349C52.6506 29.6999 55.493 28.2652 58.7039 26.6158M10.1819 26.6439L10.1816 26.644L10.443 27.1511C8.00325 28.4073 5.67702 29.5734 2.80073 30.1272C2.77481 30.1322 2.74884 30.1371 2.72283 30.142L2.90493 31.1105L3 31.6162H3.10248L3.29793 32.5806C6.44935 31.942 9.02108 30.6168 11.4883 29.3455L11.5559 29.3107L11.5562 29.3106L11.5644 29.3063C11.5645 29.3063 11.5646 29.3062 11.5647 29.3062C11.6266 29.2743 11.6885 29.2424 11.7503 29.2106M10.1819 26.6439C7.65397 27.9464 5.41557 29.0905 2.70208 29.6404C2.00272 29.7821 1.5 30.3969 1.5 31.1105V31.6162C1.5 32.0625 1.69879 32.4857 2.04234 32.7707C2.38589 33.0556 2.8385 33.1728 3.27718 33.0903C6.72513 32.4421 9.46335 31.0309 11.9519 29.7485L12.0116 29.7177L11.7503 29.2106M11.7503 29.2106C11.7845 29.193 11.8186 29.1754 11.8528 29.1579L12.114 29.6649M11.7503 29.2106L12.0117 29.7177L12.114 29.6649M12.114 29.6649C15.607 27.8652 18.7538 26.2841 23.4214 26.2641L83.0443 26.927C82.9811 26.8966 82.9177 26.866 82.854 26.8353L82.8432 26.83L82.7813 26.8002C79.4033 25.1703 75.9939 23.5252 70.9746 23.549M70.9746 23.549L70.9794 24.5693L70.9749 24.5693C70.9764 24.5693 70.9779 24.5693 70.9794 24.5693L70.9746 23.549ZM60.5926 29.6592L60.5925 29.6593L60.5501 29.681C57.3506 31.3246 53.7562 33.171 48.2964 33.2145C42.6278 33.2597 38.6428 31.3315 35.0622 29.5989L35.0034 29.5704L35.0033 29.5704L34.958 29.5485L34.9579 29.5484C31.3182 27.7874 28.0744 26.2446 23.4216 26.2641L60.5926 29.6592Z" fill="#1F425F" stroke="#1F425F" stroke-width="3" stroke-miterlimit="10" stroke-linejoin="round"/>
<path d="M98.4996 52.3603C98.4804 51.5458 97.8146 50.8957 97 50.8957C96.969 50.8957 96.9381 50.8957 96.9073 50.8957C95.1123 50.8958 93.516 50.8959 91.5035 50.5235C89.4582 50.1451 86.9278 49.3695 83.369 47.7448L83.2886 47.706L83.2886 47.706L83.2371 47.6812C79.9071 46.0742 76.291 44.3292 70.9678 44.3545M98.4996 52.3603L23.4154 47.0695C18.5331 47.0905 15.2138 48.7142 11.8528 50.443L12.1141 50.95L12.114 50.9501M98.4996 52.3603C98.5188 53.1747 97.8845 53.8555 97.0708 53.894L93.4171 54.0666C93.3661 54.069 93.3151 54.0688 93.2641 54.066C87.8491 53.7689 84.8597 52.4191 81.5504 50.8224L81.5395 50.8171C78.1508 49.1822 75.2833 47.8137 70.9888 47.8341L70.9887 47.8341C66.652 47.8545 63.8377 49.2775 60.6233 50.9286L60.6232 50.9286L60.5926 50.9444M98.4996 52.3603L60.5926 50.9444M70.9678 44.3545L70.9701 44.8342C65.8734 44.8592 62.5074 46.5882 59.272 48.25L59.2526 48.26L59.2525 48.2601L59.2219 48.2758L59.2218 48.2758C59.1513 48.3121 59.0808 48.3482 59.0104 48.3844M70.9678 44.3545C65.5582 44.3799 61.9859 46.215 58.7942 47.8546L58.75 47.8773L59.0104 48.3844M70.9678 44.3545L70.9701 44.8342C70.9716 44.8342 70.9731 44.8342 70.9746 44.8342M59.0104 48.3844C58.9951 48.3923 58.9797 48.4002 58.9643 48.408M59.0104 48.3844L58.7499 47.8773L58.7039 47.901M58.9643 48.408L59.3893 49.2352M58.9643 48.408L59.3893 49.2352M58.9643 48.408C55.8836 49.9882 52.867 51.4631 48.2725 51.4997C48.27 51.4997 48.2675 51.4998 48.2649 51.4998C43.4425 51.5366 40.0492 49.9624 36.5496 48.271M58.9643 48.408L58.7039 47.901M58.9643 48.408L58.7039 47.901L58.7039 47.901M59.3893 49.2352C56.1637 50.8921 53.0482 52.4803 48.2806 52.5199C48.2781 52.5199 48.2756 52.52 48.2731 52.52C43.2836 52.5598 39.7835 50.8772 36.1413 49.115L36.0979 49.094L59.6774 49.0873C59.6672 49.0925 59.657 49.0978 59.6468 49.103C59.6467 49.103 59.6467 49.103 59.6467 49.103C59.5762 49.1392 59.5057 49.1754 59.4353 49.2116L59.3893 49.2352ZM36.5496 48.271C36.5352 48.264 36.5207 48.257 36.5062 48.25C36.4408 48.2184 36.3754 48.1867 36.3099 48.155L36.3098 48.155L36.2645 48.1331L36.2644 48.133L36.2438 48.1231C32.6068 46.3633 28.8107 44.5266 23.4089 44.5493L23.4087 44.5493C23.4074 44.5493 23.4062 44.5493 23.4049 44.5493C23.4049 44.5493 23.4048 44.5493 23.4048 44.5493C17.9611 44.5735 14.2551 46.4721 10.74 48.2833L10.7399 48.2833L10.6374 48.3361C10.5754 48.368 10.5135 48.3999 10.4517 48.4318C10.4516 48.4318 10.4516 48.4318 10.4515 48.4319C10.4487 48.4333 10.4459 48.4347 10.4431 48.4362L10.1819 47.929M36.5496 48.271L36.7946 47.7647L36.7512 47.7438L36.6939 47.7161C33.1103 45.982 29.1084 44.0456 23.4029 44.0696L23.4027 44.0696C17.6243 44.0943 13.7042 46.1142 10.2279 47.9053L10.1904 47.9247L10.1901 47.9248L10.1819 47.929M36.5496 48.271L36.7946 47.7647C40.4362 49.5267 43.655 51.0568 48.2611 51.02C52.6506 50.9851 55.493 49.5503 58.7039 47.901M10.1819 47.929L10.1816 47.9292L10.443 48.4363C8.00325 49.6924 5.67702 50.8586 2.80073 51.4123C2.77481 51.4173 2.74884 51.4223 2.72283 51.4271L2.90493 52.3957L3 52.9013H3.10248L3.29793 53.8658C6.44935 53.2271 9.02108 51.902 11.4883 50.6307L11.5559 50.5959L11.5562 50.5957L11.5644 50.5915C11.5645 50.5914 11.5646 50.5914 11.5647 50.5913C11.6266 50.5594 11.6885 50.5276 11.7503 50.4957M10.1819 47.929C7.65397 49.2315 5.41557 50.3756 2.70208 50.9255C2.00272 51.0673 1.5 51.6821 1.5 52.3957V52.9013C1.5 53.3477 1.69879 53.7708 2.04234 54.0558C2.38589 54.3408 2.8385 54.458 3.27718 54.3755C6.72513 53.7272 9.46335 52.3161 11.9519 51.0336L12.0116 51.0028L11.7503 50.4957M11.7503 50.4957C11.7845 50.4782 11.8186 50.4606 11.8528 50.443L12.114 50.9501M11.7503 50.4957L12.0117 51.0028L12.114 50.9501M12.114 50.9501C15.607 49.1503 18.7538 47.5693 23.4214 47.5492L83.0443 48.2122C82.9811 48.1817 82.9177 48.1512 82.854 48.1204L82.8432 48.1152L82.7813 48.0854C79.4033 46.4554 75.9939 44.8103 70.9746 44.8342M70.9746 44.8342L70.9794 45.8544L70.9749 45.8544C70.9764 45.8544 70.9779 45.8544 70.9794 45.8544L70.9746 44.8342ZM60.5926 50.9444L60.5925 50.9444L60.5501 50.9662C57.3506 52.6097 53.7562 54.4561 48.2964 54.4996C42.6278 54.5449 38.6428 52.6166 35.0622 50.8841L35.0034 50.8556L35.0033 50.8555L34.958 50.8336L34.9579 50.8336C31.3182 49.0726 28.0744 47.5298 23.4216 47.5492L60.5926 50.9444Z" fill="#1F425F" stroke="#1F425F" stroke-width="3" stroke-miterlimit="10" stroke-linejoin="round"/>
</svg>
