<svg width="37" height="32" viewBox="0 0 37 32" fill="none" xmlns="http://www.w3.org/2000/svg">
<path d="M36 29.7278L37 29.7278L37 31.7278L36 31.7278L36 29.7278ZM26.5 26.8904L27.1508 26.1311L27.18 26.1561L27.2071 26.1833L26.5 26.8904ZM17.5 25.2275C16.9477 25.2275 16.5 24.7798 16.5 24.2275C16.5 23.6753 16.9477 23.2275 17.5 23.2275V25.2275ZM36 31.7278C34.4098 31.7279 29.6757 31.4803 25.7929 27.5975L27.2071 26.1833C30.5243 29.5004 34.5902 29.7278 36 29.7278L36 31.7278ZM25.8492 27.6496C25.6728 27.4985 25.2633 27.2547 24.6157 26.9655C23.9932 26.6876 23.2233 26.3992 22.3891 26.1384C20.7012 25.6106 18.8537 25.2275 17.5 25.2275V23.2275C19.1463 23.2275 21.2155 23.6759 22.9859 24.2295C23.8809 24.5094 24.7255 24.8242 25.4312 25.1393C26.1117 25.4432 26.7438 25.7823 27.1508 26.1311L25.8492 27.6496Z" fill="black"/>
<path d="M1 29.7263H0V31.7263H1V29.7263ZM10.5 26.8339L9.84921 26.0746L9.82005 26.0996L9.79289 26.1268L10.5 26.8339ZM17.3896 25.2213C17.9385 25.2823 18.4329 24.8868 18.4939 24.3378C18.5549 23.7889 18.1593 23.2945 17.6104 23.2336L17.3896 25.2213ZM1 31.7263C2.60326 31.7263 7.3298 31.4183 11.2071 27.541L9.79289 26.1268C6.4702 29.4495 2.39674 29.7263 1 29.7263V31.7263ZM11.1508 27.5931C11.3229 27.4456 11.4915 27.2834 11.6477 27.1318C11.81 26.9742 11.9629 26.8242 12.1298 26.6707C12.4579 26.3692 12.8119 26.082 13.2423 25.8386C14.0773 25.3664 15.3197 24.9914 17.3896 25.2213L17.6104 23.2336C15.1803 22.9636 13.506 23.3918 12.2577 24.0978C11.6464 24.4435 11.1671 24.8391 10.7764 25.1982C10.584 25.375 10.4062 25.5497 10.2546 25.6968C10.097 25.8498 9.96876 25.9722 9.84921 26.0746L11.1508 27.5931Z" fill="black"/>
<path d="M36 18.1519L37 18.1518L37 20.1518L36 20.1519L36 18.1519ZM26.5 15.3144L27.1508 14.5552L27.18 14.5802L27.2071 14.6073L26.5 15.3144ZM17.5 13.6516C16.9477 13.6516 16.5 13.2039 16.5 12.6516C16.5 12.0993 16.9477 11.6516 17.5 11.6516V13.6516ZM36 20.1519C34.4098 20.1519 29.6757 19.9044 25.7929 16.0215L27.2071 14.6073C30.5243 17.9245 34.5902 18.1519 36 18.1519L36 20.1519ZM25.8492 16.0737C25.6728 15.9225 25.2633 15.6788 24.6157 15.3896C23.9932 15.1117 23.2233 14.8233 22.3891 14.5625C20.7012 14.0347 18.8537 13.6516 17.5 13.6516V11.6516C19.1463 11.6516 21.2155 12.1 22.9859 12.6536C23.8809 12.9334 24.7255 13.2483 25.4312 13.5634C26.1117 13.8673 26.7438 14.2063 27.1508 14.5552L25.8492 16.0737Z" fill="black"/>
<path d="M1 18.1504H0V20.1504H1V18.1504ZM10.5 15.258L9.84921 14.4987L9.82005 14.5237L9.79289 14.5509L10.5 15.258ZM17.3896 13.6454C17.9385 13.7064 18.4329 13.3108 18.4939 12.7619C18.5549 12.213 18.1593 11.7186 17.6104 11.6576L17.3896 13.6454ZM1 20.1504C2.60326 20.1504 7.3298 19.8424 11.2071 15.9651L9.79289 14.5509C6.4702 17.8735 2.39674 18.1504 1 18.1504V20.1504ZM11.1508 16.0172C11.3229 15.8697 11.4915 15.7075 11.6477 15.5558C11.81 15.3983 11.9629 15.2482 12.1298 15.0948C12.4579 14.7933 12.8119 14.5061 13.2423 14.2627C14.0773 13.7905 15.3197 13.4154 17.3896 13.6454L17.6104 11.6576C15.1803 11.3877 13.506 11.8159 12.2577 12.5218C11.6464 12.8675 11.1671 13.2632 10.7764 13.6222C10.584 13.7991 10.4062 13.9737 10.2546 14.1208C10.097 14.2738 9.96876 14.3962 9.84921 14.4987L11.1508 16.0172Z" fill="black"/>
<path d="M36 6.57595L37 6.57592L37 8.57592L36 8.57595L36 6.57595ZM26.5 3.73851L27.1508 2.97925L27.18 3.00425L27.2071 3.0314L26.5 3.73851ZM17.5 2.07568C16.9477 2.07568 16.5 1.62797 16.5 1.07568C16.5 0.523399 16.9477 0.0756836 17.5 0.0756836V2.07568ZM36 8.57595C34.4098 8.576 29.6757 8.32844 25.7929 4.44562L27.2071 3.0314C30.5243 6.34858 34.5902 6.57599 36 6.57595L36 8.57595ZM25.8492 4.49777C25.6728 4.3466 25.2633 4.10284 24.6157 3.81368C23.9932 3.53573 23.2233 3.24739 22.3891 2.98652C20.7012 2.45874 18.8537 2.07568 17.5 2.07568V0.0756836C19.1463 0.0756836 21.2155 0.524041 22.9859 1.07767C23.8809 1.35751 24.7255 1.67238 25.4312 1.98746C26.1117 2.29133 26.7438 2.63042 27.1508 2.97925L25.8492 4.49777Z" fill="black"/>
<path d="M1 6.57443H0V8.57443H1V6.57443ZM10.5 3.68203L9.84921 2.92277L9.82005 2.94777L9.79289 2.97492L10.5 3.68203ZM17.3896 2.06947C17.9385 2.13045 18.4329 1.7349 18.4939 1.18599C18.5549 0.637086 18.1593 0.142675 17.6104 0.0816957L17.3896 2.06947ZM1 8.57443C2.60326 8.57443 7.3298 8.26645 11.2071 4.38914L9.79289 2.97492C6.4702 6.29761 2.39674 6.57443 1 6.57443V8.57443ZM11.1508 4.44129C11.3229 4.29376 11.4915 4.13158 11.6477 3.97992C11.81 3.82239 11.9629 3.67231 12.1298 3.51887C12.4579 3.21734 12.8119 2.93017 13.2423 2.68678C14.0773 2.21454 15.3197 1.83952 17.3896 2.06947L17.6104 0.0816957C15.1803 -0.188265 13.506 0.239934 12.2577 0.945895C11.6464 1.2916 11.1671 1.68729 10.7764 2.04632C10.584 2.22316 10.4062 2.3978 10.2546 2.54492C10.097 2.69791 9.96876 2.8203 9.84921 2.92277L11.1508 4.44129Z" fill="black"/>
</svg>
