<svg width="37" height="9" viewBox="0 0 37 9" fill="none" xmlns="http://www.w3.org/2000/svg">
<path d="M36 6.57595L37 6.57592L37 8.57592L36 8.57595L36 6.57595ZM26.5 3.73851L27.1508 2.97925L27.18 3.00425L27.2071 3.0314L26.5 3.73851ZM17.5 2.07568C16.9477 2.07568 16.5 1.62797 16.5 1.07568C16.5 0.523399 16.9477 0.0756836 17.5 0.0756836V2.07568ZM36 8.57595C34.4098 8.576 29.6757 8.32844 25.7929 4.44562L27.2071 3.0314C30.5243 6.34858 34.5902 6.57599 36 6.57595L36 8.57595ZM25.8492 4.49777C25.6728 4.3466 25.2633 4.10284 24.6157 3.81368C23.9932 3.53573 23.2233 3.24739 22.3891 2.98652C20.7012 2.45874 18.8537 2.07568 17.5 2.07568V0.0756836C19.1463 0.0756836 21.2155 0.524041 22.9859 1.07767C23.8809 1.35751 24.7255 1.67238 25.4312 1.98746C26.1117 2.29133 26.7438 2.63042 27.1508 2.97925L25.8492 4.49777Z" fill="black"/>
<path d="M1 6.57443H0V8.57443H1V6.57443ZM10.5 3.68203L9.84921 2.92277L9.82005 2.94777L9.79289 2.97492L10.5 3.68203ZM17.3896 2.06947C17.9385 2.13045 18.4329 1.7349 18.4939 1.18599C18.5549 0.637086 18.1593 0.142675 17.6104 0.0816957L17.3896 2.06947ZM1 8.57443C2.60326 8.57443 7.3298 8.26645 11.2071 4.38914L9.79289 2.97492C6.4702 6.29761 2.39674 6.57443 1 6.57443V8.57443ZM11.1508 4.44129C11.3229 4.29376 11.4915 4.13158 11.6477 3.97992C11.81 3.82239 11.9629 3.67231 12.1298 3.51887C12.4579 3.21734 12.8119 2.93017 13.2423 2.68678C14.0773 2.21454 15.3197 1.83952 17.3896 2.06947L17.6104 0.0816957C15.1803 -0.188265 13.506 0.239934 12.2577 0.945895C11.6464 1.2916 11.1671 1.68729 10.7764 2.04632C10.584 2.22316 10.4062 2.3978 10.2546 2.54492C10.097 2.69791 9.96876 2.8203 9.84921 2.92277L11.1508 4.44129Z" fill="black"/>
</svg>
