<?xml version="1.0" encoding="UTF-8"?>
<svg id="Vektorlag" xmlns="http://www.w3.org/2000/svg" viewBox="0 0 888.69 493.45">
  <defs>
    <style>
      .cls-1 {
        fill: #1f425f;
      }
    </style>
  </defs>
  <path class="cls-1" d="M99.06,229.97c11.66-1.25,19.98-10.49,14.28-23.7-2.58-5.54-5.89-12.35-11.9-13.42-4.12,.81-7.75,3.59-11.35,5.85-4.7,3.28-7.61,9.64-8.41,15.64,.97,9.2,9.35,15.95,17.38,15.63Zm22.34-26.61c4.28,9.91,2.92,22.77-5.27,29.6-6.41,5.43-14.86,8.49-22.84,6.54-17.94-4.64-24.51-24.16-16.15-41.91,4.38-9.58,14.41-11.21,22.85-13.19,10.19-1,17.54,9.61,21.41,18.96Z"/>
  <path class="cls-1" d="M211.67,380.28c-8.06-7-14.15-17.98-21.02-26.07-1.71-2.13-3.25-4.49-5.31-6.23-1.91-1.38-4.16-1.93-6.33-2.56-.88-.17-1.4-.29-2.2-.14-.53,.11-1.04,.41-1.57,.52h0c-8.29,4.83-17.26,8.16-26.4,9.74-3.99,.8-8.02,1.73-12.06,2.36,5.33,2.28,10.69,4.47,16.11,6.52,19.52,5.66,39.16,10.75,58.8,15.86Zm22.26-195.68c-1.91-1.78-3.82-3.54-5.74-5.3-8.61-9.01-16.34-19-23.93-29.09-3.71-4.88-7.55-9.61-11.26-14.34-.48-.77-1.14-1.54-1.66-2.35-6.51,1.27-13.01,2.68-19.48,4.17,3.67,1.49,6.41,5.11,8.91,8.43,4.87,5.59,8.66,12.18,13.18,18.08,5.7,7.16,13.23,12.12,21.19,15.46,5.95,2.86,12.36,4.16,18.78,4.95Zm25.99-6.72c7.52-4.93,14.51-11.57,17.26-21.04-6.43-7.76-12.92-15.5-20.12-22.3-3.28-3.11-6.84-5.82-10.37-8.55-.88,.12-1.75,.26-2.63,.39-12.41,1.43-24.86,2.42-37.21,4.39-1.56,.25-3.12,.5-4.68,.77,.21,.87,.44,1.73,.69,2.59,0,0,0,0,0,.01,2.14,4.63,5.05,8.83,7.84,12.98,1.53,2.41,3.14,4.75,4.85,6.98,1.86,2.12,3.69,4.27,5.53,6.42,.8,.83,1.63,1.63,2.48,2.41,4.71,4.61,8.66,10,13.43,14.48,.02,.01,.03,.02,.04,.04,2.48,2.18,4.98,4.32,7.4,6.58,.31,.25,.62,.5,.94,.75,.34-.02,.69,.02,1.02,.1,5.17,.28,9.35-4.14,13.52-6.98Zm8.97,195.67c.3-1.29,.32-2.58,.15-3.91-.35-2.47-.88-4.9-1.7-7.23-.11-.24-.22-.49-.31-.75-.77-.72-1.52-1.45-2.25-2.18-7.97-7.56-13.64-18.03-21.98-25.09-3.16-2.39-6.45-4.65-9.99-6.19-10.32,1.76-20.44,3.46-30.97,1.79-2.26-.29-3.57-.43-5.65-.76-.16-.04-.31-.07-.46-.12-2.67,2.97-5.53,5.73-8.54,8.27,4.97,2.05,8.27,8.1,11.88,12.29,4.55,6.8,9.13,13.82,14.54,19.67,4.8,5.55,12.21,7.53,18.54,9.25,7.18,1.86,14.5,1.56,21.67,0,.51-.2,1.02-.26,1.5-.22,4.43-1.77,9.03-2.88,13.57-4.25-.02-.18-.02-.37,0-.55Zm10.79-3.52s0,0,.01,0c0,0,0,0-.01,0h0Zm11.11-247.07c-11.66-.06-23.29,.55-34.88,1.85,9.75,5.55,17.87,15.3,25.7,24.17,.06-.05,.12-.1,.18-.14,.57-.37,1.05-.88,1.45-1.48,4.61-6.97,6.77-15.86,7.55-24.4Zm6.2,130.2c1.27,.15,2.55,.3,3.82,.46-5.2-3.01-10.03-6.79-14.28-11.45-4.93-5.22-9.54-10.87-14.04-16.55-4.17-5.07-8.9-9.52-12.93-14.75-5.53-6.48-11.4-12.58-17.44-18.47-.58,0-1.16,0-1.74,0-.15,.05-.31,.09-.48,.11-2.41,.24-4.84,.12-7.24-.15-14.8-2.74-30.04-8.57-41.17-20.23-6.61-8.32-11.56-18.5-19.27-25.65-2.39-2.19-5.15-3.56-8.04-4.47-2.51-.73-5.14-.3-7.68-.66-2.87,.71-5.73,1.43-8.58,2.14-30.17,8.57-60.54,16.5-90.28,26.84-11.25,3.54-21.64,9.54-32.52,14.2-1.83,.96-3.72,1.81-5.55,2.77-1.01,1.17-1.11,2.93-1.06,4.55-.06,12.66,7.22,23.02,11.68,34.11,3.88,8.11,7.68,16.27,11.76,24.25,2.19,4.06,4.38,8.12,6.6,12.16,.02,.05,.04,.1,.06,.16,.27,.48,.55,.97,.84,1.45,3,7.51,11.54,15.12,10.44,23.8,.23,2.7-.45,4.96-2.57,6.38-2.75,2.05-5.74,2.55-8.96,2.14-1.86-.16-3.73-.25-5.58-.45-1.38-.01-2.73,0-4.05,.12-9.44,.16-19.03-3.14-28.42-2.44,.11,.73,.33,1.45,.64,2.03,.65,1.33,2.27,2.2,3.28,2.84,1.08,.55,2.17,1.11,3.25,1.66,2.09,.93,4.17,1.89,6.14,3.1,3.47,1.71,6.98,3.36,10.53,4.79,17.45,9.45,35.82,16.56,53,26.61,1.18,.64,2.34,1.3,3.49,1.97,2.3,1.19,4.61,2.27,6.94,3.3,3.79,1.21,7.61,2.24,11.42,3.22,2.15-.49,4.88-.41,6.16-.68,2.88-.5,6.05-1.5,8.81-2.16,10.75-3.13,20.51-9.12,29.51-16.26,6.93-4.87,12.83-11.12,17.82-18.37,1.83-3.31,4.96-.73,2.53,2.21-5.55,10.16-14.29,17.03-23.11,23.27-3.37,2.13-15.09,11.86-23.96,16.83,.08,.02,.16,.05,.23,.07,.47,.14,.95,.26,1.45,.35,19.45-1.96,39.53-6.91,55.15-20.76,8.45-6.43,14.9-15.43,19.83-25.37,4.86-8.84,8.75-18.56,10.75-28.7,.09-1.21,.18-2.41,.27-3.62,1.16-8.41-.23-16.86-1.75-25.07-.5-1.04-.97-2.08-1.36-3.17-1.27-3.77-2.29-7.62-3.75-11.31-.29-.96-.6-1.96-.79-2.97-2.39-3.53-5.54-7.85-4.48-12.4,1.32-2.84,3.52,.13,4.91,1.28,3.64,3.55,7.42,6.94,11.35,9.98,1.21,1.25,2.44,2.48,3.65,3.74,1.73,1.96,3.46,3.96,5.43,5.63,2.57,2.2,5.26,4.25,7.93,6.29,2.56,1.96,5.07,3.98,7.86,5.5,1.71,.94,3.57,1.53,5.39,2.18,.3,.12,.6,.25,.89,.37,.28,.12,.55,.23,.83,.34,.86,.35,1.72,.7,2.59,1.02,.87,.32,1.73,.62,2.61,.9-.31,.02-.61,.03-.92,.04,3.84,.3,7.65,.59,11.56,.3,10.19-.82,20.43-.56,30.59,.65Zm17.13-52.66c-4.57-4.56-9.09-9.18-13.19-14.27-4.15-4.77-7.86-9.96-11.77-14.97-.18,.07-.38,.1-.57,.11-4.29,1.62-7.54,4.2-11.25,6.82-5.91,4.05-11.54,8.76-16.21,14.53-1.07,1.3-2,3.73-3.25,5.25,9.89,10.86,19.27,22.2,28.9,33.33,.46-.4,.93-.77,1.3-1.07,4.59-3.97,8.87-8.54,13.03-12.98,4.78-5.05,9.82-10.23,13.01-16.74Zm3.31,152.63c-1.11-2.99-1.7-6.3-3.32-9.09-.81-1.37-1.98-2.6-3.13-3.86-4.67-3.52-9.03-7.59-13.06-11.91-4.04-3.98-8.32-7.66-12.39-11.59-1.13,.54-2.36,.92-3.38,1.2-12.07,4.48-24.68,6.59-37.27,8.43,.24,.21,.46,.39,.63,.56,9.34,7.62,15.74,18.79,24.18,27.47,2.79,2.75,5.53,5.67,8.81,7.67,3.29,1.51,6.65,2.44,10.05,2.83,1.64,.15,3.34,.04,5.02,.1,8.07-3.66,16.04-7.59,23.86-11.8Zm6.97-340.19c-3.71,.87-7.4,1.85-11.03,3.09-21.61,6.69-40.52,22.16-48.56,46.25-1.14,3.11-2.66,6.07-3.37,9.36-.57,3.76-1.09,7.55-2.01,11.23-1.54,6.97-2.89,13.4-3.52,20.4-.33,3.21-1.13,7.94-2.83,11.64,2.27-.34,4.54-.71,6.81-1.1,10.53-1.12,21.14-1.65,31.76-1.8,.79-1.67,1.64-3.32,2.07-5.06,3.14-10.11,4.92-20.66,7.34-30.99,3.26-13.65,8.95-26.34,12.65-39.84,2.55-8.18,6.11-16.12,10.69-23.18Zm15.12,135.45c-.24-.63-.2-1.28,0-1.82-2.2-2.71-4.38-5.45-6.48-8.25-6.64-5.43-13.61-10.39-20.68-15-.38-.01-.77-.02-1.15-.03-6.93,7.43-12.72,16.29-17.36,25.64-1.43,3.28-2.27,6.78-2.91,10.33,7.65,8.79,14.36,18.59,22.05,27.18,1.72,2.02,3.53,3.93,5.4,5.77,.54-.88,1.34-1.68,1.78-2.32,1.14-1.66,2.61-3.73,3.73-5.22,4.04-6.02,8.26-12.02,11.03-18.93,2.1-5.57,3.49-11.43,4.57-17.34Zm1.57-10.15c.84-4.8,2.05-9.95,5.24-13.46-5.7-.35-11.38-.64-17.08-.89,4.28,3.86,7.63,9,11.27,13.6,.19,.25,.38,.5,.57,.75Zm4.98,15.66s-.07-.08-.11-.12c0,.07,0,.14,0,.21,.04-.04,.08-.07,.12-.09Zm7.59,94.93c.05-.05,.11-.1,.16-.16-.25-2.62-2.62-4.67-3.75-6.96-2.52-3.96-4.57-7.36-7.3-10.82-1.89-2.26-3.89-4.39-5.71-6.7-4.11-3.92-7.89-8.18-11.8-12.43-.37-.39-.74-.79-1.11-1.18-2.23,1.71-4.54,3.36-6.71,5.11-6.58,5.55-11.73,12.89-16.45,20.38-1.27,1.37-2.23,4.39-3.59,6.23,9.03,7.72,17.9,10.81,30.73,13.93,1.17,.53,2.91,.65,4.32,1.14,.12-.01,.23-.03,.35-.04,.24,.09,.49,.16,.73,.24h0c.23,.07,.46,.12,.7,.18,.12,.03,.24,.05,.36,.07,.12,.02,.24,.04,.36,.06,.2,.02,.39,.04,.58,.05,.23,.01,.46,.01,.69,0,.05,0,.11,0,.17-.01h.04c1.09-.07,2.11-.36,3.13-.74,0,0,0,0,0,0,.15-.05,.3-.11,.45-.17,.14-.05,.28-.11,.42-.17,.11-.04,.22-.09,.34-.14,.23-.09,.45-.19,.68-.29,.18-.07,.36-.14,.54-.2l.4-.15c.54-.2,1.07-.4,1.59-.62,.27-.11,.52-.23,.79-.35,.13-.06,.26-.12,.39-.19,.17-.09,.34-.18,.51-.27,.43-.24,.84-.48,1.25-.73,.81-.5,1.6-1.03,2.37-1.59,.39-.28,.77-.57,1.16-.87l-.22,.18,.04-.02c.05-.04,.1-.08,.15-.12,.07-.05,.15-.11,.23-.17,.12-.09,.25-.19,.38-.29,.07-.05,.14-.11,.21-.16,.18-.13,.36-.27,.54-.41,.09-.07,.19-.14,.28-.21,.03-.02,.07-.05,.1-.07,.08-.06,.16-.13,.24-.19,.04-.03,.07-.05,.1-.08,0,0,.02-.02,.03-.02,.11-.09,.22-.18,.34-.28,.13-.11,.26-.23,.39-.34,.07-.07,.15-.14,.22-.21,.07-.07,.15-.14,.22-.21Zm8.76,58.77c.11-11.58-3.7-23.69-11.28-31.74-4.71-4.23-10.24-6.38-16-7.8-18.54-4.16-37.53-5.46-56.3-7.48-10.84-.73-21.72-1.12-32.39-3.59-1.12,.77-2.37,.02-2.92-1.12-7.39-2.79-14.05-7.74-20.13-13.29-2.08-1.37-4.15-2.79-6.14-4.32,1.36,2.96,2.89,5.82,4,8.91,4.77,21.91-3.38,44.84-13.2,63.92,2.6,.7,5.23,1.34,7.85,1.89,16.1,3.8,32.8,2.26,49.04,.38,4.81-1.08,9.69-1.87,14.47-3.1-1.98-2.29-3.82-4.73-5.48-7.4-6.57-8.48-16.04-13.09-23.39-20.61-4.78-4.44,.84-12.56,5.89-8.38,6.8,6.95,14.97,11.91,21.84,18.71,2.82,3.12,5.2,6.68,7.71,10.1,3.41,4.5,7.83,7.84,11.8,11.67,7.83,7.39,14.89,16.04,24.03,21.47,5.7,2.83,11.82,6.07,18.17,5.8,4.39-1.85,7.43-6.59,10.78-10.12,5.41-6.86,10.55-14.59,11.67-23.91Zm2.89-262.92c.66-1.19,1.68-3.11,2.93-5.28-9.12-8.41-18.49-16.51-26.92-25.78-.49-.68-1.4-1.59-2.32-2.6-.39,.34-.74,.7-1.05,1.07-6.87,8.91-11.54,18.13-14.89,29.03-3.52,12.55-8.92,24.29-12.88,36.66-3.81,11.43-6.16,24.45-12.92,34.18,11.29-.03,22.58,.32,33.79,.8,1.13-.64,2.55,.26,3.75-.57,9.85-7.52,12.94-21.53,16.41-33.55,3.59-11.89,8.5-23.12,14.11-33.98Zm.23,282.11s.07,0,.08-.01c-.03,0-.05,.01-.08,.01Zm11.98-133.18c-1.03-2.17-2.22-4.25-3.51-6.24-3.11-4.35-6.2-8.79-9.34-13.19-5.33-5.39-10.33-11.22-15.44-16.86-9.51,9.4-14.43,22.94-18.27,36.18-.66,2.62-1.34,5.27-1.5,8.01-.03,.32-.09,.63-.2,.92,1.2,1.15,2.38,2.32,3.53,3.53,7.03,7.64,14.02,14.39,22.1,19.94,1.68,1.25,3.5,2.29,5.41,3,1.16,.3,2.34,.32,3.52,.3,5.39-11.48,10.79-22.95,13.68-35.59Zm11.61-62.27c-.12-.13-.23-.26-.36-.39-.98-1.04-1.99-2.06-3.09-2.93-.93-.08-1.85-.16-2.77-.24-9.05-.94-18.07-1.73-27.09-2.38-.04,.16-.1,.31-.16,.46-1.59,2.5-3.05,4.7-4.13,7.52-1.69,4.71-1.6,9.95-1.49,14.95,4.05,4.15,8.26,8.14,12.19,12.45,5.71,6,11.65,12.04,17.71,17.56,.48,.38,.97,.79,1.46,1.16,3.76-13.64,7.19-27.33,7.52-41.77,.14-2.12,.2-4.25,.21-6.39Zm3.66,144.71c-.55-1.57-.86-3.11-1.45-4.75-1.83-4.06-5.19-6.6-7.88-9.79-5.71-5.99-10.88-14.41-19.23-14.91-3.13,6.31-7.35,12.06-12.71,16.03-.76,.45-1.52,1.06-2.3,1.57,3.6,1.93,6.91,4.45,9.68,7.85,7.14,8.43,10.94,20.07,11.87,31.54,.01,.18,.02,.37,.03,.55,.99-1.18,1.98-2.3,2.91-3.34,6.26-8.35,13.08-16.18,19.09-24.75Zm3.39-174.55c4.8-7.84,6.84-17.3,11.63-25.18-10.79-9.89-21.22-20.26-32.14-30-5.23,9.54-10.14,19.39-13.82,29.76-4.79,12.29-7.54,26.29-16.45,35.89-.37,.41-.75,.84-1.15,1.25,9.73,.46,19.46,1.19,29.18,2.1,3.99,.4,7.99,.75,12,1.08,4.39-3.99,7.2-10.04,10.76-14.91Zm1.38,256.45c.09-3.11-1.96-5.59-3.55-7.9-4.45-6.95-10.08-12.5-16.25-17.27-3.46-3.34-7.74-5.75-12.36-5.97-.23,.03-.45,.02-.65-.02-.9,1.62-1.86,3.18-2.87,4.68-3.77,6.18-8.39,11.66-13.61,16.32-1.49,1.42-3.19,2.5-5,3.2,3.62,5.3,6.8,11.02,10.75,16.05,4.06,4.93,8.27,9.62,13.18,13.51,1.38,.82,1.93,3.2,.02,3.68-.93,.15-1.79-.49-2.55-1-6.16-4.89-11.73-10.64-18.23-15.02-4.51-3.2-8.29-7.59-12.92-10.43-1.82-.97-3.9-1.74-5.8-1.98-.44-.02-.85-.2-1.16-.52-10.34,8.45-22.15,14.1-34,19.46,2.22,3.03,4.21,6.29,7.06,8.65,4.06,3.2,8.52,5.86,12.46,9.18,1.5,1.82,.12,5.07-2.11,4.79-5.37-2-10.29-5.86-14.72-9.69-3.77-3.48-7.39-6.02-11.03-9.2-11.67,5.07-23.75,9.17-36.08,10.94,1.81,.46,3.62,.96,5.41,1.52,7.78,2.24,15.89,2.7,23.84,3.85,5.86,.8,11.78,2.21,17.58,2.84,2.01,.23,4.82-.2,5.63,2.42,.46,2.08-.76,3.94-1.96,5.52-.02,.08-.04,.17-.07,.25-.27,.28-.48,.61-.65,1-.32,.76-.46,1.62-.56,2.44-.02,.19-.04,.37-.05,.56-.22,1.25-.32,2.51-.34,3.79-.1,.77-.2,1.54-.28,2.31-.01,.08-.02,.16-.03,.23,0-.03,0-.05,.01-.08-.11,1.11-.13,2.21-.12,3.32,0,.39-.01,.82,0,1.26-.09,.94-.05,1.85-.04,2.79,.02,1.19,.06,2.36,.12,3.55,.07,1.34,.1,2.7,.21,4.05,.13,1.44,.39,2.85,.72,4.25,.32,1.4,.5,2.84,.84,4.24,.32,1.32,.62,2.65,.98,3.96,.39,1.47,.91,2.88,1.36,4.32,.29,.92,.58,1.82,.95,2.71,.06,.15,.13,.31,.19,.46,.49,1.66,1.03,3.31,1.66,4.91,.99,1.83,1.99,3.62,3.04,5.36,.48,1.02,.98,2.03,1.56,2.99,.54,.89,1.09,1.79,1.68,2.64,.61,.88,1.25,1.72,1.87,2.59,.65,1,1.3,2,2.06,2.89,.61,.71,1.28,1.34,1.95,1.99,.81,.84,1.64,1.62,2.49,2.41,1.59,1.5,3.29,2.91,5.13,4.01,1.53,.91,3.2,1.34,4.83,1.97,1.18,.52,2.34,1.02,3.58,1.3,.8,.18,1.61,.3,2.42,.43,.8,.12,1.65,.27,2.48,.32,.22,.01,.44,.02,.66,.01,.7-.01,1.36-.13,2.03-.28,.94-.18,1.9-.28,2.84-.4,.08-.01,.15-.02,.23-.03,0,0,.02,0,.03,0,.14-.02,.28-.04,.42-.06,.15-.03,.3-.05,.45-.09,.14-.03,.29-.06,.43-.09,.14-.04,.29-.07,.43-.11,.4-.09,.79-.23,1.19-.34,1.31-.27,2.58-.55,3.8-1.19,0,0,.01,0,.02,0s.01,0,.02,0c.08-.04,.17-.09,.25-.14,.05,0,.1-.01,.14-.02,2.42-.96,4.73-2.25,7.07-3.45,1.34-.7,2.61-1.55,3.83-2.52,0,0,.02-.01,.03-.02,2.86-2.74,5.46-5.92,8.15-8.84,.4-.54,.8-1.07,1.18-1.6,.23-.38,.48-.79,.73-1.2-6.66-6.96-13.38-13.89-19.64-21.3-1.56-1.92-3.08-3.88-4.64-5.8-.55-.52-1.11-1.03-1.67-1.54-.36-.3-.72-.62-1.06-.97-2.39-2.19-4.79-4.38-7.1-6.71-.62-.55-1.24-1.09-1.87-1.63-1.45-1-2.91-2-4.34-3.04-6.09-5.02-12.8-9.17-18.39-14.87-.48-.55-1.06-1.05-1.44-1.68-.36-.33-.65-.76-.84-1.24-.62-.5-1.01-1.18-.69-2.27,.21-.64,.59-.99,1.05-1.14,.61-.87,1.59-1.38,2.64-1.32,10.62,.45,21,.64,31.54-.18,3.93-.08,7.89,.02,11.81,.52,1.62-1.08,3.3-2.05,4.43-3.04,1.7-1.44,3.25-3.04,4.82-4.65,3.01-3.25,6.7-5.55,9.71-8.81,7.19-8.03,14.44-16.03,21.49-24.2,.39-.52,.78-1.05,1.16-1.58h0c-.05-.34-.04-.7,.01-1.04Zm19.79-128.33c-.46-1.19-.8-2.43-1.12-3.67-3.25-5.51-7.31-10.38-11.38-15.14-5.33-5.21-10.88-11.87-18.07-13.23-.08,.27-.15,.53-.23,.8-3.43,8.74-7.27,17.28-10.87,25.93-1.34,2.93-2.75,5.82-4.25,8.66v.02c2.45,6.93,6.77,12.95,11.43,18.2,4.9,5.59,9.92,12.31,17.1,13.6,6.57-11.19,12.27-23.04,17.39-35.16Zm7.22,70.6s.02-.04,.04-.05c-.06-.05-.12-.11-.18-.16,.05,.07,.1,.14,.15,.21Zm-.48,19.57c.83-1.21,1.66-2.42,2.47-3.64-1.04-2.46-.43-5.86-1.77-8.27-.3-.69-.61-1.38-.92-2.06-.98-1.46-2.05-2.87-2.85-4.47-.54-1.27-1.13-2.48-1.84-3.63-.49-.61-1.02-1.2-1.58-1.75-3.76-4.44-7.48-9.17-12.13-12.44-1.72-1.27-3.57-2.31-5.48-3.15-1.96,2.92-4.02,5.77-6.17,8.55-6.24,7.18-11.64,15.2-18.13,22.1-.49,.49-.97,1.12-1.46,1.81,.39,.49,.68,1.11,.84,1.78,1.24,3.59,2.93,6.96,4.77,10.2,4.11,5.96,9.28,11.02,14.66,15.49,3.55,2.71,7.12,5.67,11.24,7.15,6.26-9.11,12.27-18.42,18.36-27.68Zm9.74-147.13c-.14-.17-.27-.37-.37-.61-.87-2.09-2.22-3.87-3.29-5.82-.14-.25-.29-.5-.43-.76-7.07-7.89-14.91-15.21-23.5-20.71-2.03-.99-4.11-2.9-6.33-3.4-2.38,14.54-5.68,28.87-9.46,43.03,.95,1.29,1.82,2.78,2.67,3.54,3.09,3.94,6.38,7.7,10.03,10.99,4.7,4.4,9.44,8.95,15.18,11.55,1.86,.91,3.94,1.13,5.83,1.92,4.27-12.96,7.2-26.29,9.67-39.72Zm4.96-37.22c.05-.88-.05-2,0-3.06-10.77-1.15-21.58-1.95-32.38-2.75,1.74,1.99,3.38,4.51,4.45,5.65,3.5,4.75,6.97,9.62,11.41,13.32,4.31,3.61,9.24,6.09,14.09,8.65,.05,.02,.11,.04,.16,.07l.52-3.06c.89-6.23,1.83-12.49,1.77-18.82Zm2.2,259.72c-.1-.29-.17-.59-.19-.9-4.67-6.05-10.02-11.69-16.07-16.01-4.64-3.84-8.42-8.73-13.42-12.09-1.82-1.59-4.01-2.46-6.19-3.21-.06-.01-.12-.03-.18-.04-1.32,1.84-2.65,3.68-3.98,5.52-7.51,8.27-14.85,17-22.69,24.75-3.76,3.07-7.1,6.67-10.57,10.12,3.48,.14,6.96,.33,10.43,.56,10.13,.58,20.25,.58,30.36,.38,8.51-.11,16.36,.51,24.62,0,.71-.07,1.42-.11,2.13-.14,.02-2.46,2.39-4.43,4.1-6.56,.54-.8,1.09-1.6,1.65-2.39Zm5.04-281.65c-.12-.14-.24-.29-.36-.43-10-9.68-19.7-19.77-29.73-29.29-3.29,5.76-5.61,12.09-8.72,17.97-3.27,5.63-7.29,10.68-11.54,15.41,15.48,1.1,31,1.97,46.42,3.68,.52-.7,.99-1.44,1.46-2.17,.93-1.66,1.72-3.41,2.46-5.18Zm5.4,156.82c-.24-.42-.42-.92-.54-1.5-.59-2.91-1.61-5.57-2.94-8.05-4.38-4.06-8.95-9.58-12.81-15.46-3.75-3.72-7.8-7.05-12.34-9.46-5.13,12.64-10.79,24.88-17.59,36.29,4.85,7.73,11.07,14.48,17.45,20.49,3.91,3.71,8.12,6.96,12.82,9.18,5.88-10.12,11.18-20.65,15.95-31.48Zm2.49-147.97c-.89-.93-1.78-1.89-2.64-2.85-.53,.78-1.07,1.54-1.66,2.26,1.43,.19,2.87,.38,4.3,.59Zm12.49,234.2c-.69-2.04-.96-4.22-1.61-6.27-.27-.43-.45-.89-.5-1.36-1.79-4.26-5-7.3-7.82-10.68-5.29-5.86-10.28-11.77-16.84-15.65-1.95-1.09-3.95-2.02-5.93-3.01-5.92,9.21-12.04,18.27-17.84,27.55-1.23,1.88-2.48,3.74-3.75,5.59,4.6,11.15,14.14,18.86,23.04,25.52,4.16,3.31,8.79,5.24,13.86,5.3,.2-.28,.48-.43,.78-.48,5.53-8.83,11.39-17.48,16.62-26.51Zm6.7-139.84c-.46-.3-.84-.78-1.02-1.43-1.48-5.03-5.12-8.83-8.25-12.64-6.33-7.43-13.02-14.59-20.6-20.39-1.3-.8-2.7-1.4-4.05-2.08-2.06,12.43-4.9,24.69-8.83,36.5,.54,1.81,.71,3.75,1.17,5.59,.31,.95,.56,1.95,.8,2.96,1.12,1.77,2.06,3.41,2.52,4.01,5.89,9.54,12.55,18.48,20.45,26.01,.61,.54,1.31,.96,2.03,1.38,5.73-13.06,11.69-26.34,15.79-39.91Zm12.43,3.41s-.03-.04-.04-.05c0,.01,0,.02,0,.03,.02,0,.03,.01,.05,.02Zm.5-71.96c.43-1.93,.45-4.9,1.61-6.44-7.25-2.22-14.57-4.16-22.02-5.59-7.69-1.39-15.41-2.47-23.15-3.36,.52,5.79,.91,11.68,.29,17.53-.32,4-.7,8-1.14,12,.02,.05,.03,.11,.05,.16,4.81,11.93,14.22,20.41,23.94,27.12,4.04,3.06,7.5,7.07,11.8,9.71,1.83-7.38,3.66-14.77,5.37-22.18,1.36-9.61,1.72-19.37,3.25-28.96Zm3.53,164.57c-.16-.53-.16-1.12,.03-1.64-1.25-4.65-4.09-8.41-6.48-12.38-6.2-10.24-13.81-20.73-24.44-25.1-3.73,8.24-7.73,16.32-11.93,24.27-2.06,3.77-4.22,7.48-6.44,11.14,5.11,9.4,12.28,17.41,19.98,24.06,4.66,3.27,9.32,7.12,14.85,7.96,5.05-9.28,9.85-18.73,14.43-28.32Zm22.84-53.38c0-.07-.02-.13-.02-.2-4-13.24-15.22-26.89-26.3-33.1-2.48-1.13-4.59-2.04-6.92-3.23-4.08,13.03-9.55,25.2-14.81,37.61,2.32,3.55,4.59,7.34,6.8,10.64,5.92,7.88,12.64,15.42,20.87,20.14,1.92,1.16,4,1.91,5.98,2.92,.02,.01,.04,.02,.06,.04,5.05-11.46,9.82-23.09,14.33-34.82Zm2.82-7.41c.05-.11,.09-.22,.13-.34-.1,.01-.19,.02-.29,.02,.05,.11,.11,.21,.16,.32Zm17.45,100.36c-3.47-5.46-5.95-11.83-10-16.8-3.95-4.26-7.91-8.52-12.02-12.6-4.39-3.23-9.07-6.4-14.12-7.62-.1,0-.2-.02-.3-.02-5.27,11.61-10.78,23.07-16.69,34.28,1.18,2.7,2.62,5.25,4.03,7.81,4.23,6.53,9.98,11.38,15.52,16.36,4.69,2.94,9.31,7.15,14.82,6.96,.35,.01,.69,.03,1.04,.05,.52-.59,1.03-1.21,1.52-1.84,6.27-8.35,10.59-17.82,16.2-26.57Zm-1.64-159.17c1.79-11.59,1.27-23.54,2.79-35.12-2.18-.86-4.37-1.7-6.56-2.55-12.1-4.25-24.07-8.81-36.19-12.68-.02,.2-.06,.4-.15,.59,.48,13.16-.21,26.61-2.71,39.49-1.7,6.65-3.03,13.41-4.41,20.15,.96,1.5,1.53,3.29,2.3,4.9,1.34,2.32,2.89,4.48,4.34,6.72,7.77,11.13,16.58,21.77,28.52,27.14,.89-2.45,1.76-4.89,2.63-7.35,3.83-13.55,7.09-27.34,9.43-41.31Zm28.25-115.65c-3.01-2.88-6.01-5.77-8.88-8.84-4.5-5.08-9.21-9.83-14.1-14.4-3.34-2.87-5.74-5.98-9.52-7.21-12.63,.86-14.02,22.46-17.11,33.03-1.59,6.57-4.06,12.76-6.1,19.15-2.81,9.75-5.36,19.6-8.05,29.39-.33,.99-.66,2.04-1.02,3.08,15.16,4.65,30.15,9.95,44.98,15.76-5.05-10.92-.17-28.11,4.32-38.09,5.4-10.61,10.02-21.39,15.47-31.87Zm-4.03,223.47c.01-1.94-.69-3.74-1.55-5.38-5.43-10.8-12.97-20.29-22.39-26.63-3.75-2.96-7.84-5.9-12.34-6.96-1.42,3.5-2.84,7-4.25,10.5-4.03,9.59-8.08,19.19-12.24,28.72,.61,.49,1.15,1.18,1.65,1.71,2.87,3.43,5.53,7.07,8.51,10.38,3,3.54,6.27,6.77,9.64,9.87,.58,.49,1.14,.97,1.67,1.43,.21,.23,.43,.45,.64,.68,2.07,1.86,4.17,3.69,6.25,5.54,2.62,2.09,5.44,3.95,8.57,4.9,.48,.15,.98,.32,1.46,.55,3.46-7.55,6.67-15.29,10.04-22.58,1.58-3.68,3.09-7.4,4.53-11.15-.19-.48-.26-1.03-.19-1.58Zm10.23,150.54c-3.22-2.29-5.95-5.72-8.74-8.48-6.59-7.05-13.15-14.13-19.79-21.12-8.37-9.18-17.04-18.91-28.08-23.3-.04-.03-.07-.06-.11-.09-6.62,.78-13.23,1.6-19.82,2.59-7.16,1.14-14.33,2.85-21.57,2.9-3.13-.23-6.7,1.48-9.53-.39-2.66-2.27-1.08-7.39,2.31-7.23,5.91-.11,11.84,.05,17.68-1.11,8.45-1.55,16.92-2.88,25.43-3.96-1.74-5.45-4.99-10.05-8.79-14-1.51-1.7-3.04-3.45-4.61-5.16-.62-.62-1.24-1.25-1.84-1.9-.85-.84-1.7-1.69-2.54-2.56-1.84-1.72-3.78-3.29-5.84-4.58-1.93-1.2-3.88-2.33-5.95-3.1-5.23,8.86-10.88,17.37-16.33,26.08-2.52,4.25-5.74,7.87-8.66,11.76-1.01,1.09-1.99,2.82-3.03,4.59,.07,.02,.13,.05,.2,.07,26.36,12.46,47.48,34.97,68.24,56.42,6.02,6.76,12.26,13.18,19.03,18.97,.06,.06,.11,.12,.17,.18,7.43-2.43,13.69-8.36,19.32-14.13,4.21-4.23,8.5-8.39,12.85-12.44Zm4.27-70.41c-2.21-3.46-5.98-6.02-8.67-8.69-6.72-6.18-14.58-10.43-22.39-14.5-.57,.97-1.16,1.93-1.74,2.87-5.07,9.15-9.69,18.78-16.39,26.62-.65,.76-1.33,1.49-2.03,2.21,4.25-.4,8.51-.74,12.77-1.02,12.98-1.74,25.76-4.35,38.44-7.49Zm1.38-135.46c-.16-.17-.31-.36-.45-.57-8.37-14.61-19.07-28.65-34.02-34.62-.58-.25-1.13-.58-1.7-.88-2.11,11.13-5.01,22.09-8.38,32.78-.74,2.05-1.51,4.09-2.29,6.12,2.84,4.37,5.91,8.57,9.38,12.34,4.26,4.63,8.32,9.52,13.47,12.96,5.09,2.99,9.69,7.01,14.88,9.75,3-9.69,5.51-19.56,7.49-29.58,.61-2.75,1.14-5.52,1.61-8.29Zm10.17-52.5c.8-4.45,1.15-9.05,2.09-13.48-14.81-7.32-29.88-13.8-45.16-19.89,.48,5.51,.27,11.17,.34,16.7-.13,6.48-.63,12.93-1.43,19.34,1.23,1.61,2.55,3.33,3.5,4.84,3.48,4.65,7.52,8.34,11.93,11.76,6.57,5.27,13.95,9.47,21.86,11.37,.58-3.58,1.23-7.14,2.03-10.67,1.36-6.73,3.52-13.22,4.84-19.96Zm11.42,144.75c-.24-.37-.4-.81-.46-1.31-2.92-11.05-13.63-20.76-22.07-26.82-2.49-1.91-5.47-2.61-8.26-3.73-4.84,12.75-10.32,25.21-15.83,37.48,.79,.99,1.31,2.43,1.98,3.4,5.27,9.92,14.55,16.32,23.48,21.31,1.64,.76,4,1.3,5.35,2.6,.81-1.03,1.5-1.99,1.89-2.84,5.55-9.48,9.63-19.85,13.91-30.1Zm2.78-215.63c1.05-1.43,1.98-3.69,3.11-5.55-9.8-10.46-19.81-20.61-30.17-30.29-1.25-1.28-2.52-2.54-3.8-3.79-4.31,8.27-7.75,16.68-11.3,25.34-4.96,10.46-12.27,28.6-8.25,40.08,.16,.51,.52,1.22,.88,1.98,12.6,5.06,25.09,10.47,37.47,16.14-4.89-13.46,4.53-32.69,12.07-43.91Zm2.59,299.71c1.05-1.09,2.09-2.2,3.12-3.31-8.54-4.38-13.7-14.34-20.7-21.16-3.8-3.77-8.54-6.64-13.64-7.23-.82-.08-1.7-.11-2.57-.18-14.5,3.55-29.13,6.34-43.95,7.16,9.16,4.54,16.53,12.62,23.84,20.14,4.15,4.09,8.3,8.13,12.26,12.21,2.36,2.39,4.76,4.75,7.13,7.14,2.94,2.75,5.59,6.53,9.43,7.64l.11,.04c8.15-7.71,16.8-14.73,24.96-22.43Zm15.03-134.27c-.28-.27-.52-.63-.72-1.07-4.31-7.45-9.28-14.78-14.79-21.14-4.81-5.32-10.44-9.59-16.14-13.61-.93-.74-2.69-1.32-4.18-2.08-.41,2.3-.86,4.59-1.37,6.87-1.96,11.56-4.91,22.82-8.5,33.85,.54,.71,1.02,1.44,1.41,1.96,3.35,4.68,6.63,9.43,10.42,13.68,6.28,5.91,12.54,11.9,20.39,14.68,.13,.05,.26,.11,.38,.18,2.46-5.89,4.81-11.84,7.19-17.8,1.96-5.11,4.04-10.28,5.91-15.52Zm5.07,7.24s.09-.03,.13-.04c-.05,.02-.09,.03-.13,.04h0Zm6.6,69.44c-.08-.08-.14-.18-.21-.27-5.62-8.13-12.98-14.48-20.41-20.22-1.46-1.14-2.95-2.32-4.69-2.85-5.04,12.79-9.7,25.85-17.43,36.86,3.88-1.06,7.74-2.16,11.61-3.3,10.52-2.85,20.88-6.34,31.13-10.21Zm-6.28-96.15c3.15-19.85,9.03-39.54,7.59-59.89-.15-1.98-.31-3.96-.32-5.95-6.92-3.93-13.9-7.74-20.95-11.39-5.71-3.23-11.45-6.29-17.23-9.22-.41,4.67-.46,9.39-1.19,14.02-1.12,6.34-2.89,12.69-3.87,19.02-1.03,5.8-1.82,11.68-2.62,17.54,3.3,4.19,5.94,8.96,8.87,13.47,3.18,4.89,7.68,8.53,11.9,12.1,5.16,4.32,10.65,9.03,16.89,10.98,.28,.07,.53,.17,.75,.3,.06-.32,.12-.65,.18-.97Zm12.75,114.87s0,0-.01,0c-4.12-2.41-6.67-6.91-10.75-9.3-.27-.11-.55-.23-.82-.37-9.33,3.68-18.8,6.87-28.44,9.41-3.93,1.11-7.86,2.22-11.8,3.3,7.57,3.95,14.07,11.47,20.19,18.05,2.57,2.98,6.11,4.54,9.7,5.32,1.43-1.68,2.84-3.37,4.25-5.07,5.8-7.17,12.02-14.04,17.68-21.33Zm2.89-222.85c.59-1.11,1.23-2.5,2.01-3.74-6.94-7.12-14.01-14.09-20.77-21.42-3.59-4.02-7.2-8.02-10.84-11.98-1.13,2.12-2.28,4.23-3.47,6.32-3.83,6.47-7.47,13.12-9.71,20.51-1.62,5.65-3.31,12.26-.02,17.58,.67,1.43,1.73,2.71,2.63,4.05,11.26,5.84,22.45,11.84,33.52,18.11-2.02-6.84,.14-15.17,3.35-23.32,.99-2.11,2.25-4.05,3.31-6.1Zm1.58,216.53c3.1-4.58,6.09-9.26,9.29-13.74-3.75,1.68-7.54,3.27-11.35,4.77-.95,1.11-2.09,1.79-3.52,1.37-.64,.25-1.28,.49-1.92,.73-.67,.29-1.34,.57-2.01,.85,1.62,.9,3.11,2.03,4.23,2.87,1.59,1.29,3.38,2.48,5.27,3.15Zm13.17-57.34c-.07-.11-.14-.22-.21-.34-.18-.18-.35-.39-.48-.64-2.49-4.57-5.03-8.5-7.85-11.88,0,0-.01-.02-.03-.03-.93-.98-1.89-1.93-2.9-2.82-1.27-.95-2.52-1.95-3.72-2.99-4.83-3.45-10.2-5.7-15.53-5.75-4.12,11.19-8.79,22.18-13.29,33.1,1.86,3.38,3.47,6.85,5.68,9.99,2.26,3.45,5.5,5.71,8.75,7.84,4.41,2.97,7.87,7.63,12.84,9.32,.25-.21,.52-.29,.78-.28,.7-1.06,1.38-2.14,2.04-3.24,5.38-10.45,9.7-21.29,13.92-32.27Zm14.84-55.54c-.28-.14-.53-.36-.72-.66-5.05-8.27-11.39-15.34-18.09-21.93-.54-.52-1.09-1.04-1.64-1.56h0c-.45-.41-.9-.82-1.33-1.25-3.2-2.91-6.67-5.5-10.78-6.04-.89,9.15-2.52,18.25-4.26,27.22-.8,4.8-1.43,9.63-2.35,14.39,.14,.27,.27,.55,.39,.83,1.61,3.16,2.96,6.47,4.61,9.61,2.73,4.94,6.78,8.79,11.12,11.86,3.99,3.38,7.38,6.33,11.11,9.87,.51,.46,1.12,.88,1.7,1.32,4.93-12.53,6.83-26.1,9.27-39.44,.36-1.43,.68-2.84,.97-4.23Zm3.06-21.82c.61-3.27-.1-11.56,2.53-14.19-8.58-5.45-17.31-10.61-26.23-15.39-3.99-2.39-7.99-4.75-12.01-7.07,.41,3.23,.64,6.48,.74,9.71,.44,.42,.73,1.03,.7,1.66,2.19,4.46,4.79,8.65,7.38,12.66,5.36,6.51,12.22,11.31,18.82,15.96,2.29,1.21,4.34,1.91,6.74,2.43,.29,.09,.53,.22,.74,.39,.22-2.02,.41-4.07,.59-6.15Zm6.25,96.55c2.23-1.85,4.57-3.55,6.95-5.02-6.42-7.67-14.57-13.14-23.61-15.73-1.98,5.36-4.02,10.7-5.92,16.07-3.22,8.46-6.54,16.93-11.04,24.62,4.74-1.96,9.46-3.98,14.16-6.04,5.49-5.57,12.05-9.61,18.61-13.38,.28-.18,.56-.35,.84-.52Zm1.21-133.24c.61-.71,1.27-1.66,1.98-2.55-8.18-9.53-15.97-19.49-24.17-28.99-3.28-3.91-6.68-7.67-10.15-11.35-1.86,3.54-3.79,7.06-5.2,10.84-2.66,9.02-5.39,15.46,2.51,22.21,1.18-.02,2.09,1.02,2.27,2.22,.25,.15,.51,.3,.77,.45,9.88,5.62,19.72,11.32,29.35,17.43-.27-3.64,.64-7.43,2.64-10.27Zm29.32,102.55c.61-2,1.22-4,1.8-6-4.68-6.54-10.39-12.15-16.16-17.44-5.72-5.66-12.46-9.27-19.25-12.81-.54-.31-1.06-.65-1.57-1-.3,1.44-.58,2.88-.82,4.33-1.22,6.79-2.4,13.6-3.95,20.3-.89,3.56-1.92,7.07-3.04,10.54,.1,.13,.2,.26,.3,.37,2.3,3.25,4.91,6.18,8.01,8.46,6.16,4.45,12.93,8.64,20.43,8.8,.91,.16,1.58,.61,2.03,1.22,.57-.49,1.14-.98,1.72-1.46,3.27-3.57,6.24-7.34,8.65-11.76,.64-1.16,1.26-2.34,1.85-3.54Zm4.59-69.16c-.24-.33-.48-.66-.71-1-1.84-1.62-3.61-3.34-5.33-5.07-5.04-4.38-9.01-9.93-13.05-15.4-.12-.13-.23-.27-.34-.41-1.81-1.99-3.59-4.01-5.37-6.02-.81-.88-1.62-1.77-2.42-2.67-.96,1.12-1.95,2.21-2.47,3.3-1.01,2.73-1.33,6.1,.13,8.67,7.31,4.86,14.46,10,21.39,15.58,1.46,.55,2.89,1.13,4.33,1.76,1.26,.46,2.55,.89,3.85,1.25Zm4.28,32.23c.39-5.75,.36-11.55,.72-17.3-.52-.08-1.03-.18-1.54-.29-4.68-.01-8.89-1.95-12.31-5.14-.13-.06-.27-.12-.4-.19-8.42-6.12-16.95-12.04-25.63-17.67-.13,.46-.38,.88-.78,1.2-.3,7.07-.01,14.2-.82,21.25,.13,.18,.24,.38,.32,.61,.74,1.87,1.4,3.78,2.12,5.66,6.38,9.35,14.23,17.41,22.96,23.95,3.56,2.85,7.5,5.15,11.7,6.54,.15-.56,.29-1.12,.43-1.68,1.27-5.58,2.23-11.27,3.22-16.95Zm12.04,43.94s.03-.08,.04-.12c-.03,.02-.06,.04-.09,.06,.02,.02,.03,.04,.05,.06Zm26.08-31.7c-.13-.14-.27-.28-.4-.42-2.47-2.57-4.94-5.16-7.38-7.77-1.93-1.73-3.81-3.52-5.64-5.39-4.8-4.49-9.62-8.98-14.22-13.71-2.21,14.6-2.66,29.41-6.1,43.73-.66,3.32-1.59,6.55-2.73,9.68,4.07-2.71,8.1-5.46,11.93-8.47,8.18-5.89,16.42-11.68,24.55-17.66Zm31.94-27.75c2.48-2.61,4.87-5.24,7.2-7.91-7.01-8.33-14.33-16.75-23.52-21.87-1.05-.29-2.28-.07-3.38-.2-8.27,7.17-19.01,16.06-28.8,22,2.71,3.35,5.81,6.29,8.56,9.59,3.27,4.2,6.35,8.59,10.28,12.05,2.38,2.37,4.81,4.66,7.23,6.97,3.41-2.62,6.79-5.29,10.12-8.04,0-.01,.02-.02,.03-.03,4.3-3.92,8.31-8.16,12.27-12.56Zm39.05-59.75c1.49-5.23,2.96-10.57,2.7-16.14,.11-1.1-.52-2.9-1.1-4.73-8.36,6.42-16.32,13.43-24.58,20.02-6.47,5.3-12.98,10.54-19.31,16.04,1.21,2.42,.48,5.64,1.6,8.2,3.61,7.18,9.2,12.77,12.92,19.8,.5,.64,1,1.28,1.5,1.93,3.49-4.38,6.81-8.93,9.97-13.75,3.93-5.61,8.22-11.16,11.71-17.19,1.92-4.53,3.48-9.25,4.58-14.17Zm37.5,192.81c.06-5.73,.47-11.44,.37-17.16-.67-10.87-2.73-21.62-5.81-31.95-2.25-6.59-4.02-13.38-6.75-19.74-2.41-5.12-5.58-9.68-8.38-14.52-.7-1.4-2.34-4.65-3.25-7.61-.26,.09-.51,.18-.76,.29-10.12,4.19-16.31,14.68-22.62,23.89-1.77,2.85-3.13,6.64-5.23,9.3,4.48,5.11,7.48,11.66,9.64,18.37,6.48,15.73,7.24,33.29,7.07,50.33,.28,6.62,1.8,13.09,4.54,18.96,1.46,3.45,3.55,6.47,5.5,9.59,.61,1.13,.72,2.27,.49,3.28,2.93,2.38,5.86,4.75,8.76,7.16,4.55,3.68,9.25,7.11,13.84,10.71-.25-2.79-.34-5.58-.19-8.37,.38-4.76,.68-8.98,.97-13.2,.63-13.42,1.77-26.01,1.8-39.34Zm11.74-224.05c.12-6.66,1.07-13.29,.67-19.97-.17-2.53-.46-5.19-.64-7.86-2.24,1.97-4.52,3.9-6.86,5.73-5.44,4.81-11.05,9.5-16.73,14.06-2.34,2.38-4.95,4.5-6.48,7.64-3,6.75-5.8,13.62-6.99,21.1-1.1,7.45-3.89,15.38-6.8,21.87-1.98,5.37-4.4,10.53-7.24,15.4-4.82,8.55-9.27,17.47-15.72,24.64-.59,.78-1.2,1.54-1.8,2.3,.72,.82,1.45,1.61,2.2,2.36,5.07,4.84,9.64,10.64,14.5,15.62,3.21,3.14,6.34,6.36,9.12,9.98,.64,.71,1.38,1.39,1.93,2.2,1.98,3.11-1.74,6.64-4.32,4.29-6.62-7.66-13.7-14.67-20.75-21.43-2.64-2.29-5.37-4.48-7.94-6.87-9.03,9.91-19.28,18.29-29.45,26.73-.21,.18-.41,.36-.62,.54,.71,.74,1.41,1.5,2.09,2.27,3.51,3.96,7.12,8.71,10.74,12.36,4.01,3.89,8.04,8.18,11.88,12.18,1.34,1.29,3.5,2.89,2.05,5.07-.45,.7-1.29,1.03-2.04,.89-2.62-.93-4.5-3.69-6.71-5.45-2.99-2.75-6.06-5.3-8.96-7.49-5.86-4.34-12.05-8.18-17.8-12.7-2.89,2.25-5.82,4.43-8.75,6.62-2.5,3.38-4.93,6.84-7.27,10.36-2.66,4.45-5.61,9.09-6.1,14.57,.8,2.63,1.49,5.3,2.1,7.99,.42,.95,.48,1.91,.3,2.76,10.75,11.94,21.66,23.79,31.67,36.46,3.73,4.89,8.02,9.2,11.91,13.93,3.25,4.1,6.17,7.91,9.59,11.71,8.88,9.37,18.51,17.73,28.33,25.82-2.4-6.56-3.68-13.63-3.58-20.74,.06-6.21,1.02-12.38,.73-18.6-.77-18.84-6.39-31.57-14.88-46.79-.48,.11-.99,.16-1.53,.16-7.16,.88-13.98,2.3-20.61,5.19-3.88,2.33-6.98,6.17-9.88,9.72-1.31,1.36-3.09,4.8-4.53,4.73-.4-.02-.78-.32-1.11-1.01,.36-5.81,3.71-11.17,6.74-15.75,3.47-5.01,8.72-7.82,14-9.63,4.6-1.77,9.3-3.24,14.14-3.89,2.95-7.29,7.18-13.73,11.75-19.84,6.28-9.73,15.54-16.49,26.03-18.94,4.41-13,12.45-23.79,19.49-35.06,4.73-7.3,7.39-15.81,9.47-24.45,3.24-11.18,4.05-22.93,5.31-34.52,.37-8.77-.16-17.55-.62-26.3Zm13.94-54.12c2.14-2.07,4.44-.41,3.91,2.46-.3,.65-.61,1.3-.89,1.95-.39,.89-.72,1.8-.98,2.76-.17,.61-.34,1.23-.5,1.85-.02,.07-.04,.14-.05,.21-.13,.51-.25,1.02-.37,1.54-.11,.5-.22,1-.32,1.51-.01,.05-.02,.11-.04,.17,0,.02,0,.03,0,.05-.19,.95-.39,1.89-.55,2.85h0c-.05,.15-.11,.29-.16,.43-.08,.2-.15,.41-.22,.61-.05,.14-.1,.28-.14,.42-.04,.13-.08,.26-.12,.39-.09,.3-.18,.6-.25,.91-.03,.11-.05,.21-.08,.31-.13,.55-.24,1.12-.32,1.69-.01,.06-.02,.12-.02,.18-.03,.19-.05,.38-.07,.57-.1,.98-.23,1.98-.34,2.97-.07,.6-.13,1.19-.18,1.79-.04,.53-.07,1.06-.09,1.59,0,.3-.02,.6-.04,.9-.02,.41-.04,.82-.07,1.22-.03,.41-.06,.81-.09,1.22,0,.02,0,.04,0,.07-.04,.54-.06,1.07-.07,1.6v.22c0,.15,0,.3,0,.46v.41c.02,.23,.02,.46,.04,.7,0,.14,0,.27,0,.41,0,.23,0,.46-.01,.69,0,.14,0,.28-.02,.42-.03,.35-.05,.69-.08,1.04-.02,.16-.03,.32-.04,.48,0,.05,0,.11-.01,.17-.05,.64-.09,1.29-.12,1.94,0,.18-.01,.35-.02,.53,0,.07,0,.14,0,.21,0,.58,.03,1.15,.06,1.73,.01,.2,.02,.41,.03,.61,.01,.16,.02,.31,.02,.46,0,.13,.01,.26,.02,.38v.02c0,.45-.02,.9-.02,1.35,0,.19,0,.38,0,.56,0,.22,0,.45,.02,.67,.02,.67,.06,1.34,.09,2,0-.09,0-.19,0-.29,0,.18,.01,.37,.02,.55,0,.03,0,.06,0,.09,0,.3,.02,.61,.04,.91s.03,.61,.04,.91v.03s0,.02,0,.03v.04c0,.18,.02,.36,.02,.54,0,.3,.01,.59,0,.88-.05,.86-.08,1.7-.11,2.55,0,.28-.01,.57-.02,.85-.04,1.09-.11,2.18-.19,3.26-.03,.43-.06,.87-.09,1.3-.01,.22-.02,.43-.04,.65-.04,.72-.06,1.44-.07,2.16,0,.24,0,.48,0,.72,0,.48,0,.96,0,1.44s0,.96,0,1.43h0c-.02,.39-.04,.78-.06,1.17-.02,.26-.03,.51-.04,.77,0,.13-.02,.26-.02,.39-.05,.93-.11,1.86-.16,2.79-.09,1.75-.18,3.5-.29,5.25v-.04s0,.02,0,.04c-.15,2.44-.33,4.89-.47,7.33-.12,2.15-.23,4.3-.41,6.45,0,.02,0,.04,0,.05,0-.02,0-.04,0-.06,0,.06,0,.12-.02,.17,0,.02,0,.04,0,.05,0,.04,0,.07,0,.11,0,.01,0,.02,0,.04,0,.02,0,.04,0,.05-.01,.11-.02,.22-.04,.34-.16,1.58-.35,3.17-.53,4.74-.18,1.62-.35,3.21-.58,4.81,0-.07,.02-.14,.03-.22-.11,.71-.27,1.41-.39,2.11-.1,.62-.18,1.23-.26,1.85-.4,3.14-.87,6.27-1.26,9.42-.12,1-.2,2.01-.27,3.02-2.42,9.45-5.25,18.84-10.24,27.01-5.57,9.5-12.25,18.19-17.16,28.17-1.36,2.66-2.21,5.7-3.5,8.41,.86,7.63,4.29,15.11,6.4,22.13,.4,1.54,2.02,4.83,2.79,7.67,1.45,4.22,2.49,8.63,3.79,12.91,4,13.44,6.96,27.39,7.85,41.55,.13,22.84,.04,45.74-2.07,68.48-.02,4.96,.42,9.99,1.27,14.86,.58,2.61-.54,4.6-2.15,5.55-.49,.59-1.2,.96-1.95,.91-4.04-.33-7.17-3.88-10.46-6.2-6.21-4.66-12.05-9.89-17.76-15.28-2.21-2.24-4.52-4.36-6.86-6.46-11.46-9.33-22.29-19.58-33.28-29.59-10.03-9.29-18.03-20.9-27.13-31.27-10.68-14.08-23.44-26.22-33.8-40.56-.78,.3-1.68,.36-2.64,.11-3.51-1.29-7.16-1.95-10.86-1.62-7.64,.97-15.27,2.22-22.52,5.11-6.97,2.72-13.3,6.95-19.75,10.91-5.72,3.37-11.41,6.9-16.22,11.8-7.24,7.95-13.09,17.32-19.58,26-7.63,9.7-16.05,18.59-24.09,27.86-5.22,6.03-10.2,12.37-16.02,17.7-9.32,8.03-18.53,16.22-27.71,24.45-6.11,5.34-12.09,10.85-18.05,16.39-3.18,2.95-6.7,5.78-10.5,7.87-.7,.71-1.58,1.18-2.48,1.62-.71,.46-1.47,.84-2.25,1.16-.11,.07-.21,.14-.32,.21-2.24,1.27-4.65,2.28-7.17,1.91-.76-.15-2.18-.38-3.35-.87-.57-.11-1.15-.38-1.72-.85-9.27-7.18-17.14-16.14-25.41-24.65-6.67-6.71-13.74-14.16-20.34-20.75-11.29-10.38-23.01-20.13-34.55-30.16-.09,0-.19,0-.29,0-6.59-.04-13.11,1.03-19.64,1.36-18.95,.48-37.93,1.12-56.87,.31-4.39,.11-8.79,.32-13.19,.5-1.4,.98-3.2,1.11-4.59,.18-7.25,.25-14.5,.3-21.71-.41,3.44,2.04,6.7,4.45,9.61,7.34,3.09,3.36,6.28,6.75,8.96,10.54,2.44,2.3,4.77,4.74,6.77,7.48,1.87,2.29,3.59,4.72,5.23,7.23,1.15,1.31,2.31,2.64,3.48,4.02,3.92,5.02,9.11,9.05,12.25,14.73,.13,.3,.23,.62,.3,.95,.28,.78,.34,1.65,.11,2.47-.05,.1-.09,.2-.14,.29-.27,1.26-.87,2.43-1.69,3.16-3.43,5.88-8.03,10.91-13.29,14.81-2.91,2.59-5.8,4.31-9.02,5.3-.39,.18-.77,.34-1.16,.5-5.48,1.74-11.25,3.75-16.99,3.44-1.27-.07-2.54-.25-3.81-.58-4.64-1.19-9.01-3.27-13.03-6.05-1.08-.38-2.12-.88-3.09-1.53-5.41-3.89-9.6-9.6-13.45-15.31-1.47-2.18-2.88-4.43-4.12-6.78-6.08-10.8-8.39-22.63-8.62-36.93,.2-7.16-.27-17.78,4.18-23.62-12.91-.61-25.85-1.87-38.62-4.18-14.16-3.88-28.53-6.73-42.74-10.39-14.09-3.3-28.06-7.2-41.87-11.75-6.73-2.11-13.54-3.93-20.4-5.45-7.04-1.98-13.8-5.01-20.6-7.81-7.5-3.32-14.77-7.27-22.24-10.7-5.96-2.75-12.33-4.35-18.02-7.86-4.64-3.02-9.46-5.57-14.63-7.23-7.28-2.86-14.87-6.82-21.63-10.24-11.39-5.35-22.62-11.16-33.38-17.95-3.37-1.4-6.68-2.99-10.04-4.4-2.87-1.04-5.79-2.25-7.75-4.96-2.22-3.13-2.58-7.88-.55-11.24,4.1-5.1,11.15-4.01,16.72-4.18,8.84,.54,17.48,2.81,26.32,3.47,3.05,.48,6.38,1.44,9.36,.15-.1-.35-.15-.66-.16-.96-1.2-2.67-2.38-5.33-3.58-7.96-2.73-4.46-5.02-9.33-7.73-13.76-2.18-3.75-4.49-7.4-6.52-11.26-2.12-4-4.02-8.15-5.81-12.34-1.75-3.25-3.53-6.48-5.32-9.72-.1-.16-.2-.33-.3-.49-2.7-4.55-5.29-9.17-7.76-13.88v-.02c-1.43-2.5-2.82-5.08-4-7.71h0c-2.29-4.27-4.62-8.71-4.71-13.67-.31-1.19-.51-2.41-.54-3.67,.7-12.3,13.25-16.84,22.27-19.48,3.19-1.43,6.34-3.46,9.86-3.47,.91,.09,2.02-.33,3.11-.69h0c22.05-10.86,46.12-16.04,69.22-23.53,28.59-8.64,57.36-16.37,86.46-22.49,15.52-3.29,31.25-4.72,46.91-6.8,.9-1.02,1.78-2.04,2.17-3.46,1.82-5.88,.88-12.17,1.53-18.24,.67-7.96,2.83-15.66,3.5-23.62,9.69-39.36,32.91-59.61,67.83-67.81,3.21-.7,6.44-1.33,9.67-1.94,1.45-.37,3.06-.86,4.56-.9,1.41-.16,2.93,.21,4.05,.95,3.01,1.98,5.62,4.54,8.15,7.2l.02,.02c2.84,2.81,5.58,5.79,8.7,8.2,4.49,3.66,8.63,7.53,12.68,11.69,1.09,.97,2.16,1.96,3.23,2.96,.51,.43,1.02,.86,1.52,1.3,.77,.66,1.54,1.33,2.3,2.01,.77,.68,1.52,1.36,2.28,2.06,.98,.88,1.96,1.75,2.95,2.63,10.75,9.6,21.36,19.4,31.87,29.33,2.72,2.57,5.42,5.14,8.12,7.73,4.56,4.36,9.1,8.75,13.62,13.15,5.3,5.21,10.6,10.44,15.78,15.8,.64,.66,1.28,1.32,1.91,1.98,.35,.43,.7,.86,1.05,1.28,.35,.42,.71,.84,1.06,1.26,.36,.42,.71,.83,1.07,1.24,.34,.38,.67,.76,1.01,1.14,.02,.03,.05,.06,.07,.09,3.81,4.23,7.86,8.16,12,12,.27,.25,.49,.52,.68,.79,3.35,.66,6.69,1.4,10.02,2.21,.89,.24,1.78,.49,2.67,.74,3.41-10.86,6.54-21.86,10.46-32.53,3.14-7.9,6.62-15.61,9.11-23.82,2.62-8.22,5.27-16.64,10.18-23.55,6.52-9.99,17.45-13.71,26.09-4.56,10.26,8.75,18.66,19.21,28.53,28.3,8.49,8.56,16.59,16.27,25.07,24.64,10.26,10.13,19.62,21.32,29.38,32.05,15.65,16.82,31.85,31.8,46.41,49.7,9.45,10.89,18.44,22.27,27.64,33.42,2.2,1.85,4.15,4.05,6.11,6.17,4.2,3.92,8.21,8.14,12.71,11.7,2.3,1.78,5.36,3.61,7.78,4.82,1.65,.76,3.5,1.98,5.29,1.39,1.63-.61,2.25-.64,3.46-1.04,3.44-1.52,6.18-4.51,9.49-6.34,.37-.2,.76-.32,1.16-.38,11.12-8.18,21.4-17.66,31.8-26.94,19.57-16.44,39.39-32.89,59.7-48.09,10.26-7.44,19.79-16.02,29.86-23.73,4.41-3.24,8.32-7.21,12.65-10.55,0-.02,.02-.02,.03-.02,.32-.3,.7-.55,1.06-.8h0c.18-.14,.36-.27,.54-.4,2.96-2.32,6.06-4.41,8.97-6.83Z"/>
</svg>